<svg xmlns="http://www.w3.org/2000/svg" viewBox="0 0 28.71 28.66"><defs><style>.cls-1{fill:#666;}</style></defs><title>login</title><g id="Calque_2" data-name="Calque 2"><g id="Calque_1-2" data-name="Calque 1"><path class="cls-1" d="M28.7,26.66a1.79,1.79,0,0,1-1.86,2c-1.11,0-2.22,0-3.34,0H14.43c-4,0-8,0-11.93,0-1.57,0-2.57-.43-2.5-2.44,0-.72,0-1.44,0-2.16a2.29,2.29,0,0,1,1.22-2q4.24-2.31,8.5-4.59a.81.81,0,0,1,.63,0,9.26,9.26,0,0,0,3.56,1,7.36,7.36,0,0,0,3.93-.8,1.37,1.37,0,0,1,1.39,0q4,2.14,8,4.31A2.72,2.72,0,0,1,28.7,24.5C28.71,25.22,28.71,25.94,28.7,26.66Z"/><path class="cls-1" d="M21.78,9a8.32,8.32,0,0,1-3.61,6.59,6.73,6.73,0,0,1-8.9-1A9.19,9.19,0,0,1,8.8,2.8a6.89,6.89,0,0,1,11.13,0A9.67,9.67,0,0,1,21.78,9Z"/></g></g></svg>