<svg id="Calque_1" data-name="Calque 1" xmlns="http://www.w3.org/2000/svg" viewBox="0 0 402.94 147.18"><defs><style>.cls-1{fill:none;}.cls-2{fill:#df0505;}</style></defs><title>logosogelibred</title><path class="cls-1" d="M107.52,55.87c-11.76,0-17.09,10.46-17.47,20.89h34.47C124.22,67.3,119.33,55.87,107.52,55.87Z"/><path class="cls-1" d="M354.22,56.34c-7,0-13.62,4.81-15.73,12.68a20.38,20.38,0,0,0-.59,4.23v3.52h33.2C370.87,65.68,365,56.34,354.22,56.34Z"/><path class="cls-1" d="M235.45,55.51c-10.45,0-15,9.62-15.85,16.78h30.16C249.88,65.72,247.07,55.51,235.45,55.51Z"/><path class="cls-1" d="M185.8,67.13c-1.88-6-6.92-10.92-14.44-10.92-9.62,0-16.54,7.94-16.87,20.54h31.89V71.83A14.72,14.72,0,0,0,185.8,67.13Z"/><path class="cls-2" d="M49.19,61.38c-10.92-4.23-15.73-7.86-15.73-15.26,0-5.4,4.11-11.85,14.91-11.85a31.51,31.51,0,0,1,15,3.76l2.82-8.33c-3.52-2-9.39-3.87-17.49-3.87C33.35,25.82,23.14,35,23.14,47.3c0,11.15,8,17.84,20.89,22.42,5.63,2.16,9.45,4.37,11.82,7H68.08C65.53,69.83,59.2,65.24,49.19,61.38Z"/><path class="cls-2" d="M107.52,55.87c11.81,0,16.7,11.43,17,20.89h10.57c-.25-17-11.21-28.64-27.34-28.64-15.3,0-27.49,10.56-28.14,28.64H90.06C90.43,66.33,95.76,55.87,107.52,55.87Z"/><path class="cls-2" d="M171.37,56.22c7.51,0,12.56,4.93,14.44,10.92a14.72,14.72,0,0,1,.59,4.69v4.93H196.6V65c0-6.92.23-11.5.47-15.61h-9L187.56,58h-.23c-2.46-4.69-7.86-9.86-17.72-9.86-12.68,0-24.91,10.34-25.56,28.64H154.5C154.83,64.16,161.75,56.22,171.37,56.22Z"/><path class="cls-2" d="M259.74,74.88c0-10.45-4.93-26.76-23.47-26.76-15.9,0-25.84,12.46-26.59,28.64h50C259.72,76.17,259.74,75.56,259.74,74.88Zm-10-2.58H219.6c.82-7.16,5.4-16.78,15.85-16.78C247.07,55.51,249.88,65.72,249.77,72.3Z"/><rect class="cls-2" x="272.53" y="22.88" width="10.33" height="53.87"/><rect class="cls-2" x="300.23" y="49.41" width="10.33" height="27.35"/><path class="cls-2" d="M305.16,39.79c4.11,0,6.69-2.82,6.57-6.34A6.13,6.13,0,0,0,305.4,27a6.29,6.29,0,0,0-6.46,6.46A6.14,6.14,0,0,0,305.16,39.79Z"/><path class="cls-2" d="M337.9,73.24a20.38,20.38,0,0,1,.59-4.23c2.11-7.86,8.69-12.68,15.73-12.68,10.8,0,16.65,9.34,16.89,20.42h10.34c0-17.06-10-28.64-23.94-28.64-9.15,0-15.73,4.11-19.37,10.45h-.23V22.88H327.69V76.76H337.9Z"/><path d="M42.38,98.94a36.19,36.19,0,0,1-18.31-5.16l-2.58,8.57c4.23,2.82,12.56,5,20.19,5,18.66,0,27.7-10.56,27.7-22.77a22.5,22.5,0,0,0-1.3-7.87H55.84a12.38,12.38,0,0,1,3.09,8.69C58.93,93.42,52.83,98.94,42.38,98.94Z"/><path d="M106.82,107.51c13.73,0,28.29-9.15,28.29-30.16,0-.2,0-.39,0-.59H124.52q0,.47,0,.94c0,12.79-7.39,22.07-17.25,22.07C97.19,99.76,90,90.37,90,77.93c0-.39,0-.78,0-1.18H79.62c0,.5,0,1,0,1.53C79.59,96.24,91.44,107.51,106.82,107.51Z"/><path d="M168.2,106c8.8,0,14.91-4.23,18.07-9.51h.23v6.34c0,14.32-7.75,19.84-18.31,19.84a32,32,0,0,1-16.67-4.46l-2.58,7.86c4.58,3.05,12.09,4.69,18.9,4.69,7.16,0,15.14-1.64,20.66-6.81C194,119,196.6,111,196.6,98V76.76H186.39V82a18,18,0,0,1-.82,5.52,15.1,15.1,0,0,1-14.32,10.56c-11.15,0-16.78-9.27-16.78-20.42,0-.32,0-.63,0-.94H144.05c0,.5,0,1,0,1.53C144,94,154.11,106,168.2,106Z"/><path d="M237.56,107.39c9,0,15.26-1.88,18.9-3.52l-1.76-7.39c-3.87,1.64-8.33,2.93-15.73,2.93-10.33,0-19.25-5.75-19.48-19.72h39.91c.08-.72.21-1.72.29-2.94h-50c0,.66-.05,1.33-.05,2C209.63,95.89,220.07,107.39,237.56,107.39Z"/><rect x="272.53" y="76.76" width="10.33" height="29.46"/><rect x="300.23" y="76.76" width="10.33" height="29.46"/><path d="M327.22,106.22h8.92l.47-9.39H337c4.23,7.51,10.8,10.68,19,10.68,12.68,0,25.47-10.09,25.47-30.4,0-.12,0-.24,0-.35H371.11c0,.24,0,.47,0,.71,0,13-6.46,21.83-17.25,21.83-7.51,0-13.5-4.93-15.49-12.09a19.29,19.29,0,0,1-.47-3.76V76.76H327.69V91.55C327.69,96.59,327.46,102.34,327.22,106.22Z"/></svg>