<svg xmlns="http://www.w3.org/2000/svg" viewBox="0 0 23.75 29.38"><defs><style>.cls-1{fill:#666;}</style></defs><title>password</title><g id="Calque_2" data-name="Calque 2"><g id="Calque_1-2" data-name="Calque 1"><path class="cls-1" d="M9.45,1.73a6.44,6.44,0,0,1,.65-.25A5.14,5.14,0,0,0,9.45,1.73Zm-1.28.74.2-.13a8.32,8.32,0,0,1,.8-.47,7.49,7.49,0,0,0-.8.47Z"/><path class="cls-1" d="M9.45,1.73a6.44,6.44,0,0,1,.65-.25A5.14,5.14,0,0,0,9.45,1.73Zm-1.08.6-.2.14.2-.13a8.32,8.32,0,0,1,.8-.47A7.49,7.49,0,0,0,8.38,2.33Z"/><path class="cls-1" d="M21.76,10.67c-.72,0-1.44,0-2.42,0,0-1.37.07-2.56,0-3.74a7.47,7.47,0,0,0-14.91.27c0,1.09,0,2.18,0,3.48H2.07A1.84,1.84,0,0,0,0,12.7Q0,20,0,27.36a1.83,1.83,0,0,0,2.07,2h19.7a1.77,1.77,0,0,0,2-2q0-7.4,0-14.81A1.77,1.77,0,0,0,21.76,10.67ZM13.35,21.27v1.56a1.47,1.47,0,1,1-2.94,0V21.27a2.94,2.94,0,1,1,2.94,0Zm4.71-10.71H5.76a22.74,22.74,0,0,1-.14-2.64c0-.07,0-.14,0-.21s0-.21,0-.31,0-.21,0-.31,0-.42.08-.64,0-.21.06-.32,0-.16.05-.25A4.58,4.58,0,0,1,6,5.43c0-.12.08-.23.13-.34a1.79,1.79,0,0,1,.08-.19,3.19,3.19,0,0,1,.15-.32c0-.09.09-.18.14-.26L6.63,4a3.39,3.39,0,0,1,.21-.29l.22-.27.24-.26.16-.16.17-.16.18-.15.15-.12.23-.17.2-.14a7.49,7.49,0,0,1,.8-.47l.27-.13a5.14,5.14,0,0,1,.65-.25,5.9,5.9,0,0,1,5.09.73C18.35,4.15,18.31,7.25,18.06,10.56Z"/><path class="cls-1" d="M8.38,2.33a7.49,7.49,0,0,1,.8-.47,8.32,8.32,0,0,0-.8.47l-.2.13Z"/><path class="cls-1" d="M10.1,1.48a6.44,6.44,0,0,0-.65.25A5.14,5.14,0,0,1,10.1,1.48Z"/></g></g></svg>